<?xml version="1.0" encoding="UTF-8" standalone="no"?>
<!-- Created with Inkscape (http://www.inkscape.org/) -->

<svg
   width="199.0607mm"
   height="193.22606mm"
   viewBox="0 0 199.0607 193.22606"
   version="1.1"
   id="svg965"
   inkscape:version="1.1.2 (0a00cf5339, 2022-02-04)"
   sodipodi:docname="logo.svg"
   xmlns:inkscape="http://www.inkscape.org/namespaces/inkscape"
   xmlns:sodipodi="http://sodipodi.sourceforge.net/DTD/sodipodi-0.dtd"
   xmlns="http://www.w3.org/2000/svg"
   xmlns:svg="http://www.w3.org/2000/svg">
  <sodipodi:namedview
     id="namedview967"
     pagecolor="#505050"
     bordercolor="#eeeeee"
     borderopacity="1"
     inkscape:pageshadow="0"
     inkscape:pageopacity="0"
     inkscape:pagecheckerboard="0"
     inkscape:document-units="mm"
     showgrid="false"
     fit-margin-top="0"
     fit-margin-left="0"
     fit-margin-right="0"
     fit-margin-bottom="0"
     inkscape:zoom="0.5499273"
     inkscape:cx="430.05685"
     inkscape:cy="377.3226"
     inkscape:window-width="1920"
     inkscape:window-height="1016"
     inkscape:window-x="0"
     inkscape:window-y="27"
     inkscape:window-maximized="1"
     inkscape:current-layer="layer1" />
  <defs
     id="defs962" />
  <g
     inkscape:label="Lager 1"
     inkscape:groupmode="layer"
     id="layer1"
     transform="translate(-5.7081989,-87.980828)">
    <path
       id="path3895"
       style="fill:#673400;stroke:#000000;stroke-width:6.365;stroke-miterlimit:4;stroke-dasharray:none;stroke-opacity:1;fill-opacity:1"
       d="m 164.05886,172.59961 c 0.28646,0.81932 0.68072,1.60873 0.83642,2.4681 0.18488,0.9307 -0.10821,1.88017 -0.57079,2.68483 -0.45741,0.8547 -1.10298,1.58473 -1.62954,2.39373 -0.64409,0.98292 -0.99424,2.15875 -0.94317,3.33627 0.0362,0.83374 0.17664,1.65886 0.26225,2.48835 0.22883,-0.006 0.30104,0.001 0.0326,0.0357 -1.31024,0.23831 -2.53534,0.79001 -3.73749,1.34353 -1.41975,0.6898 -2.82295,1.58291 -3.68948,2.93913 -0.7833,1.20229 -0.99151,2.6861 -0.8787,4.09378 0.1321,1.83204 0.71111,3.58631 1.195,5.34623 1.15835,-0.005 2.3234,0.0426 3.47222,-0.13953 2.39602,-0.33436 4.73601,-0.98365 7.03877,-1.71217 3.12766,-1.01044 6.20113,-2.21047 9.13263,-3.70161 1.71855,-0.88142 3.37902,-1.89997 4.85496,-3.15102 0.93337,-0.80503 1.80411,-1.80459 2.05301,-3.04706 0.26201,-1.2662 -0.15506,-2.55065 -0.68145,-3.69247 -0.90306,-1.98548 -2.32219,-3.68146 -3.82826,-5.23734 -1.93532,-1.96194 -4.09575,-3.71146 -6.45716,-5.13576 -1.3494,-0.79538 -2.77572,-1.52204 -4.3234,-1.83148 -0.81113,-0.12813 -1.63138,-0.19144 -2.44636,-0.29197 0.10266,0.27027 0.20533,0.54054 0.30799,0.8108 z m 19.97604,16.41554 c -0.66358,-0.007 -1.34327,0.12178 -1.90169,0.49764 -0.81733,0.54023 -1.54382,1.20395 -2.34078,1.77289 -4.36021,3.22709 -9.29423,5.80954 -14.54604,7.29028 -1.83504,0.52543 -3.72349,0.83198 -5.61744,1.04852 -1.02109,0.11964 -2.05079,0.21544 -3.05955,0.28458 -0.83025,0.066 -1.66359,0.0635 -2.49474,0.10409 -3.18038,0.2491 -6.09463,2.60759 -6.94706,5.69051 -0.4331,1.58985 -0.45015,3.30908 0.0306,4.89023 0.23595,0.78119 0.66902,1.49273 1.19976,2.10767 0.37725,0.41639 0.96055,0.51554 1.49641,0.5155 1.91975,0.0549 3.82659,-0.24527 5.71283,-0.56794 4.04392,-0.72598 8.02931,-1.74848 11.97205,-2.89706 3.73815,-1.11029 7.45054,-2.33357 11.03639,-3.8729 2.271,-0.99842 4.53753,-2.0613 6.55938,-3.51378 1.38547,-1.00619 2.65742,-2.27855 3.29129,-3.89885 0.60291,-1.51848 0.60004,-3.20866 0.32471,-4.79808 -0.2632,-1.43662 -0.8996,-2.853 -2.02067,-3.82258 -0.43905,-0.43163 -1.00305,-0.75481 -1.62683,-0.79868 -0.35484,-0.0366 -0.71238,-0.033 -1.06867,-0.032 z m 4.52014,10.78022 c -0.55517,0.62696 -1.08062,1.28841 -1.74423,1.80746 -1.54741,1.26974 -3.24871,2.34261 -5.00364,3.30049 -2.87183,1.51525 -5.89217,2.73359 -8.96102,3.78673 -1.82732,0.62151 -3.67671,1.17718 -5.54046,1.67883 -3.6831,0.98792 -7.4718,1.76861 -11.25699,2.36562 -2.1645,0.34288 -4.36106,0.61511 -6.55232,0.85953 -1.16884,0.15164 -2.35615,0.25087 -3.48797,0.59761 -1.09907,0.37 -2.05794,1.08892 -2.83334,1.9405 -1.64435,1.83515 -2.44261,4.32378 -2.45908,6.76505 -0.0157,1.73768 0.33865,3.54907 1.3876,4.97181 0.74355,1.00729 1.80134,1.78377 2.98489,2.19047 1.30146,0.38996 2.68124,0.3539 4.02411,0.28825 2.83623,-0.18533 5.64037,-0.68081 8.4321,-1.19546 6.69091,-1.26404 13.34806,-2.82243 19.76401,-5.12736 3.59716,-1.31309 7.14057,-2.84826 10.36267,-4.93562 2.02723,-1.33469 3.95781,-2.90624 5.33405,-4.92889 1.0137,-1.48825 1.6464,-3.28177 1.54728,-5.09743 -0.0948,-1.77621 -0.78963,-3.46806 -1.69483,-4.97912 -0.72121,-1.209 -1.63715,-2.28561 -2.60255,-3.30486 -0.43721,-0.47534 -0.87433,-0.95075 -1.31167,-1.42596 -0.12954,0.14745 -0.25907,0.2949 -0.38861,0.44235 z m 6.45542,13.73973 c -0.61659,0.005 -1.28814,0.28926 -1.5348,0.8914 -0.39801,0.73531 -0.98688,1.34541 -1.5598,1.94626 -0.9013,0.91506 -1.8755,1.76295 -2.935,2.4907 -0.0865,0.0552 -0.26499,0.17525 -0.3867,0.25526 -0.17395,0.11393 -0.41235,0.2674 -0.5896,0.37654 -3.64504,2.26252 -7.64689,3.88196 -11.70382,5.24127 -3.18061,1.06465 -6.42303,1.92951 -9.6748,2.74596 -0.70376,0.18988 -1.41936,0.34247 -2.1155,0.5563 -0.4909,0.18752 -0.9818,0.37505 -1.4727,0.56257 0.60497,0.14451 1.20113,0.33357 1.81192,0.44866 1.79219,0.25881 3.58806,0.48985 5.39014,0.66844 2.97273,0.29494 5.95142,0.57486 8.94073,0.61018 3.83146,0.0581 7.68692,-0.13695 11.44904,-0.9025 2.47099,-0.51758 4.93283,-1.27789 7.08908,-2.62071 1.23696,-0.78783 2.41638,-1.77227 3.09663,-3.09783 1.12894,-2.14821 0.9553,-4.87832 -0.34934,-6.91068 -0.87062,-1.38467 -2.26174,-2.39183 -3.78271,-2.95589 -0.53607,-0.18962 -1.1012,-0.32024 -1.67277,-0.30593 z" />
    <path
       id="path3895-3"
       style="fill:#673400;stroke:#000000;stroke-width:6.365;stroke-miterlimit:4;stroke-dasharray:none;stroke-opacity:1;fill-opacity:1"
       d="m 100.5939,220.22849 c 0.28646,0.81932 0.68072,1.60873 0.83642,2.4681 0.18488,0.9307 -0.10821,1.88017 -0.57079,2.68483 -0.45741,0.8547 -1.102976,1.58473 -1.629536,2.39373 -0.64409,0.98292 -0.99424,2.15875 -0.94317,3.33627 0.0362,0.83374 0.17664,1.65886 0.26225,2.48835 0.22883,-0.006 0.30104,0.001 0.0326,0.0357 -1.31024,0.23831 -2.53534,0.79001 -3.73749,1.34353 -1.41975,0.6898 -2.82295,1.58291 -3.68948,2.93913 -0.7833,1.20229 -0.99151,2.6861 -0.8787,4.09378 0.1321,1.83204 0.71111,3.58631 1.195,5.34623 1.15835,-0.005 2.3234,0.0426 3.47222,-0.13953 2.39602,-0.33436 4.73601,-0.98365 7.038766,-1.71217 3.12766,-1.01044 6.20113,-2.21047 9.13263,-3.70161 1.71855,-0.88142 3.37902,-1.89997 4.85496,-3.15102 0.93337,-0.80503 1.80411,-1.80459 2.05301,-3.04706 0.26201,-1.2662 -0.15506,-2.55065 -0.68145,-3.69247 -0.90306,-1.98548 -2.32219,-3.68146 -3.82826,-5.23734 -1.93532,-1.96194 -4.09575,-3.71146 -6.45716,-5.13576 -1.3494,-0.79538 -2.77572,-1.52204 -4.3234,-1.83148 -0.81113,-0.12813 -1.63138,-0.19144 -2.44636,-0.29197 0.10266,0.27027 0.20533,0.54054 0.30799,0.8108 z m 19.97604,16.41554 c -0.66358,-0.007 -1.34327,0.12178 -1.90169,0.49764 -0.81733,0.54023 -1.54382,1.20395 -2.34078,1.77289 -4.36021,3.22709 -9.29423,5.80954 -14.54604,7.29028 -1.835036,0.52543 -3.723486,0.83198 -5.617436,1.04852 -1.02109,0.11964 -2.05079,0.21544 -3.05955,0.28458 -0.83025,0.066 -1.66359,0.0635 -2.49474,0.10409 -3.18038,0.2491 -6.09463,2.60759 -6.94706,5.69051 -0.4331,1.58985 -0.45015,3.30908 0.0306,4.89023 0.23595,0.78119 0.66902,1.49273 1.19976,2.10767 0.37725,0.41639 0.96055,0.51554 1.49641,0.5155 1.91975,0.0549 3.82659,-0.24527 5.71283,-0.56794 4.04392,-0.72598 8.029306,-1.74848 11.972046,-2.89706 3.73815,-1.11029 7.45054,-2.33357 11.03639,-3.8729 2.271,-0.99842 4.53753,-2.0613 6.55938,-3.51378 1.38547,-1.00619 2.65742,-2.27855 3.29129,-3.89885 0.60291,-1.51848 0.60004,-3.20866 0.32471,-4.79808 -0.2632,-1.43662 -0.8996,-2.853 -2.02067,-3.82258 -0.43905,-0.43163 -1.00305,-0.75481 -1.62683,-0.79868 -0.35484,-0.0366 -0.71238,-0.033 -1.06867,-0.032 z m 4.52014,10.78022 c -0.55517,0.62696 -1.08062,1.28841 -1.74423,1.80746 -1.54741,1.26974 -3.24871,2.34261 -5.00364,3.30049 -2.87183,1.51525 -5.89217,2.73359 -8.96102,3.78673 -1.82732,0.62151 -3.67671,1.17718 -5.54046,1.67883 -3.6831,0.98792 -7.471796,1.76861 -11.256986,2.36562 -2.1645,0.34288 -4.36106,0.61511 -6.55232,0.85953 -1.16884,0.15164 -2.35615,0.25087 -3.48797,0.59761 -1.09907,0.37 -2.05794,1.08892 -2.83334,1.9405 -1.64435,1.83515 -2.44261,4.32378 -2.45908,6.76505 -0.0157,1.73768 0.33865,3.54907 1.3876,4.97181 0.74355,1.00729 1.80134,1.78377 2.98489,2.19047 1.30146,0.38996 2.68124,0.3539 4.02411,0.28825 2.83623,-0.18533 5.64037,-0.68081 8.4321,-1.19546 6.690906,-1.26404 13.348056,-2.82243 19.764006,-5.12736 3.59716,-1.31309 7.14057,-2.84826 10.36267,-4.93562 2.02723,-1.33469 3.95781,-2.90624 5.33405,-4.92889 1.0137,-1.48825 1.6464,-3.28177 1.54728,-5.09743 -0.0948,-1.77621 -0.78963,-3.46806 -1.69483,-4.97912 -0.72121,-1.209 -1.63715,-2.28561 -2.60255,-3.30486 -0.43721,-0.47534 -0.87433,-0.95075 -1.31167,-1.42596 -0.12954,0.14745 -0.25907,0.2949 -0.38861,0.44235 z m 6.45542,13.73973 c -0.61659,0.005 -1.28814,0.28926 -1.5348,0.8914 -0.39801,0.73531 -0.98688,1.34541 -1.5598,1.94626 -0.9013,0.91506 -1.8755,1.76295 -2.935,2.4907 -0.0865,0.0552 -0.26499,0.17525 -0.3867,0.25526 -0.17395,0.11393 -0.41235,0.2674 -0.5896,0.37654 -3.64504,2.26252 -7.64689,3.88196 -11.70382,5.24127 -3.18061,1.06465 -6.42303,1.92951 -9.6748,2.74596 -0.70376,0.18988 -1.41936,0.34247 -2.1155,0.5563 -0.4909,0.18752 -0.9818,0.37505 -1.472696,0.56257 0.604966,0.14451 1.201126,0.33357 1.811916,0.44866 1.79219,0.25881 3.58806,0.48985 5.39014,0.66844 2.97273,0.29494 5.95142,0.57486 8.94073,0.61018 3.83146,0.0581 7.68692,-0.13695 11.44904,-0.9025 2.47099,-0.51758 4.93283,-1.27789 7.08908,-2.62071 1.23696,-0.78783 2.41638,-1.77227 3.09663,-3.09783 1.12894,-2.14821 0.9553,-4.87832 -0.34934,-6.91068 -0.87062,-1.38467 -2.26174,-2.39183 -3.78271,-2.95589 -0.53607,-0.18962 -1.1012,-0.32024 -1.67277,-0.30593 z" />
    <path
       id="path3895-3-6"
       style="fill:#673400;stroke:#000000;stroke-width:6.365;stroke-miterlimit:4;stroke-dasharray:none;stroke-opacity:1;fill-opacity:1"
       d="m 32.234093,167.21853 c 0.28647,0.81932 0.68073,1.60874 0.83643,2.4681 0.18487,0.9307 -0.10822,1.88017 -0.5708,2.68483 -0.4574,0.8547 -1.10297,1.58473 -1.62953,2.39373 -0.64409,0.98292 -0.99424,2.15875 -0.94317,3.33628 0.0362,0.83373 0.17664,1.65886 0.26225,2.48834 0.22883,-0.006 0.30104,0.001 0.0326,0.0357 -1.31024,0.23832 -2.53534,0.79001 -3.73749,1.34353 -1.41975,0.6898 -2.82295,1.58291 -3.68948,2.93913 -0.7833,1.20229 -0.99151,2.6861 -0.8787,4.09378 0.1321,1.83205 0.71111,3.58631 1.195,5.34623 1.15835,-0.005 2.3234,0.0426 3.47222,-0.13953 2.39602,-0.33436 4.73601,-0.98365 7.03877,-1.71217 3.12766,-1.01044 6.20113,-2.21046 9.13263,-3.70161 1.71855,-0.88142 3.37902,-1.89997 4.85496,-3.15101 0.93337,-0.80503 1.80411,-1.80459 2.05301,-3.04706 0.26201,-1.2662 -0.15506,-2.55065 -0.68145,-3.69247 -0.90306,-1.98548 -2.3222,-3.68146 -3.82826,-5.23734 -1.93532,-1.96194 -4.09575,-3.71146 -6.45716,-5.13577 -1.3494,-0.79537 -2.77572,-1.52204 -4.32341,-1.83148 -0.81112,-0.12813 -1.63137,-0.19144 -2.44635,-0.29196 0.10266,0.27027 0.20533,0.54054 0.30799,0.8108 z m 19.97605,16.41554 c -0.66359,-0.007 -1.34328,0.12178 -1.9017,0.49764 -0.81732,0.54023 -1.54382,1.20395 -2.34078,1.77289 -4.36021,3.22709 -9.29422,5.80954 -14.54604,7.29028 -1.83503,0.52543 -3.72348,0.83198 -5.61743,1.04852 -1.02109,0.11964 -2.05079,0.21544 -3.05955,0.28458 -0.83025,0.066 -1.66359,0.0635 -2.49474,0.10409 -3.18038,0.2491 -6.09463,2.60759 -6.94706,5.69051 -0.4331,1.58985 -0.45015,3.30908 0.0306,4.89023 0.23595,0.78119 0.66902,1.49273 1.19976,2.10767 0.37725,0.41639 0.96055,0.51554 1.49641,0.5155 1.91975,0.0549 3.82659,-0.24527 5.71283,-0.56794 4.04392,-0.72598 8.0293,-1.74848 11.97204,-2.89706 3.73816,-1.11029 7.45054,-2.33357 11.03639,-3.8729 2.271,-0.99842 4.53753,-2.0613 6.55939,-3.51378 1.38547,-1.00619 2.65742,-2.27855 3.29129,-3.89885 0.6029,-1.51848 0.60003,-3.20866 0.3247,-4.79808 -0.26319,-1.43662 -0.8996,-2.853 -2.02066,-3.82258 -0.43906,-0.43163 -1.00305,-0.75481 -1.62683,-0.79868 -0.35485,-0.0366 -0.71238,-0.033 -1.06867,-0.032 z m 4.52013,10.78022 c -0.55516,0.62696 -1.08062,1.28841 -1.74423,1.80746 -1.5474,1.26974 -3.2487,2.34261 -5.00363,3.30049 -2.87184,1.51525 -5.89218,2.73359 -8.96103,3.78673 -1.82732,0.62151 -3.67671,1.17718 -5.54046,1.67883 -3.6831,0.98792 -7.47179,1.76861 -11.25698,2.36562 -2.1645,0.34288 -4.36106,0.61511 -6.55232,0.85953 -1.16884,0.15164 -2.35615,0.25087 -3.48797,0.59761 -1.09907,0.37 -2.05794,1.08892 -2.83334,1.9405 -1.6443499,1.83515 -2.4426099,4.32378 -2.4590799,6.76505 -0.0157,1.73768 0.33865,3.54907 1.3875999,4.97181 0.74355,1.00729 1.80134,1.78377 2.98489,2.19047 1.30146,0.38996 2.68124,0.3539 4.02411,0.28825 2.83623,-0.18533 5.64037,-0.68081 8.4321,-1.19546 6.6909,-1.26404 13.34805,-2.82243 19.76401,-5.12736 3.59716,-1.31309 7.14057,-2.84826 10.36266,-4.93562 2.02724,-1.33469 3.95781,-2.90624 5.33405,-4.92889 1.01371,-1.48825 1.64641,-3.28177 1.54728,-5.09743 -0.0948,-1.77621 -0.78963,-3.46806 -1.69482,-4.97912 -0.72122,-1.209 -1.63716,-2.28561 -2.60255,-3.30486 -0.43721,-0.47534 -0.87433,-0.95075 -1.31167,-1.42596 -0.12955,0.14745 -0.25908,0.2949 -0.38862,0.44235 z m 6.45542,13.73973 c -0.61658,0.005 -1.28814,0.28926 -1.53479,0.8914 -0.39801,0.73531 -0.98689,1.34541 -1.5598,1.94626 -0.9013,0.91506 -1.8755,1.76295 -2.935,2.4907 -0.0865,0.0552 -0.26499,0.17525 -0.3867,0.25526 -0.17395,0.11393 -0.41235,0.2674 -0.58961,0.37654 -3.64504,2.26252 -7.64688,3.88196 -11.70382,5.24127 -3.18061,1.06465 -6.42303,1.92951 -9.6748,2.74596 -0.70376,0.18988 -1.41936,0.34247 -2.1155,0.5563 -0.4909,0.18752 -0.9818,0.37505 -1.47269,0.56257 0.60496,0.14452 1.20112,0.33357 1.81191,0.44866 1.79219,0.25881 3.58806,0.48985 5.39014,0.66844 2.97273,0.29494 5.95143,0.57486 8.94073,0.61018 3.83146,0.0581 7.68692,-0.13695 11.44904,-0.90249 2.47099,-0.51758 4.93283,-1.2779 7.08908,-2.62071 1.23696,-0.78783 2.41638,-1.77227 3.09663,-3.09783 1.12894,-2.14821 0.95531,-4.87832 -0.34933,-6.91068 -0.87063,-1.38467 -2.26175,-2.39183 -3.78272,-2.95589 -0.53606,-0.18962 -1.1012,-0.32024 -1.67277,-0.30594 z" />
    <path
       id="path1060"
       style="fill:#ffffff;stroke:#000000;stroke-width:20.6551;fill-opacity:1"
       d="m 492.7793,342.85352 c -16.25177,0 -29.33399,13.08221 -29.33399,29.33398 v 152.97461 a 122.06286,84.552777 0 0 0 -3.52929,-4.08984 H 258.34961 a 122.06286,84.552777 0 0 0 -21.32617,47.64062 122.06286,84.552777 0 0 0 107.42968,83.88867 l -32.53515,47.80664 c -17.19546,25.26656 -10.16635,29.33399 29.33594,29.33399 h 159.7207 c 16.25174,0 27.82927,-13.15224 29.33594,-29.33399 L 540.4082,591.94531 c 3.06467,-32.91484 7.90306,-33.47161 -29.33398,-29.33593 l -30.16406,3.3496 a 122.06286,84.552777 0 0 0 -1.08204,-9.04101 c 3.90299,1.91484 8.29484,2.99414 12.95118,2.99414 h 60.375 c 16.25177,0 29.33593,-13.08417 29.33593,-29.33594 V 372.1875 c 0,-16.25177 -13.08416,-29.33398 -29.33593,-29.33398 z"
       transform="scale(0.26458333)" />
  </g>
</svg>
